<?xml version="1.0" encoding="UTF-8" standalone="no"?>
<!-- Created with Inkscape (http://www.inkscape.org/) -->

<svg
   xmlns:dc="http://purl.org/dc/elements/1.1/"
   xmlns:cc="http://creativecommons.org/ns#"
   xmlns:rdf="http://www.w3.org/1999/02/22-rdf-syntax-ns#"
   xmlns:svg="http://www.w3.org/2000/svg"
   xmlns="http://www.w3.org/2000/svg"
   xmlns:sodipodi="http://sodipodi.sourceforge.net/DTD/sodipodi-0.dtd"
   xmlns:inkscape="http://www.inkscape.org/namespaces/inkscape"
   width="210mm"
   height="297mm"
   viewBox="0 0 744.09448819 1052.3622047"
   id="svg2"
   version="1.1"
   inkscape:version="0.91 r13725"
   sodipodi:docname="trashpandaoops.svg">
  <defs
     id="defs4" />
  <sodipodi:namedview
     id="base"
     pagecolor="#ffffff"
     bordercolor="#666666"
     borderopacity="1.0"
     inkscape:pageopacity="0.0"
     inkscape:pageshadow="2"
     inkscape:zoom="0.55242718"
     inkscape:cx="130.89191"
     inkscape:cy="474.37782"
     inkscape:document-units="px"
     inkscape:current-layer="layer1"
     showgrid="false"
     inkscape:window-width="1440"
     inkscape:window-height="806"
     inkscape:window-x="0"
     inkscape:window-y="1"
     inkscape:window-maximized="1"
     inkscape:object-paths="true"
     inkscape:snap-intersection-paths="true"
     inkscape:object-nodes="true"
     inkscape:snap-smooth-nodes="true"
     inkscape:snap-nodes="false" />
  <metadata
     id="metadata7">
    <rdf:RDF>
      <cc:Work
         rdf:about="">
        <dc:format>image/svg+xml</dc:format>
        <dc:type
           rdf:resource="http://purl.org/dc/dcmitype/StillImage" />
        <dc:title></dc:title>
      </cc:Work>
    </rdf:RDF>
  </metadata>
  <g
     inkscape:label="Layer 1"
     inkscape:groupmode="layer"
     id="layer1">
    <g
       id="g4205"
       transform="translate(1072.64,3.5450271)">
      <path
         inkscape:connector-curvature="0"
         id="path3367"
         d="m -721.12885,957.96343 c -9.316,24.30925 -141.2169,55.04477 -164.0495,49.43387 -22.8326,-5.6109 -57.8829,-12.62556 -48.2615,-55.4774 9.6214,-42.85183 64.1044,-60.06407 72.9178,-62.46558 8.8133,-2.4015 -35.9773,-157.35896 11.7934,-175.75361 84.3913,-32.49587 241.01667,-51.68738 127.5998,244.26272 z"
         style="fill:#b3b3b3;fill-rule:evenodd;stroke:none;stroke-width:1px;stroke-linecap:butt;stroke-linejoin:miter;stroke-opacity:1"
         sodipodi:nodetypes="ssssss"
         inkscape:export-xdpi="86.718498"
         inkscape:export-ydpi="86.718498" />
      <path
         inkscape:connector-curvature="0"
         id="path4529"
         d="m -898.4,906.7622 140.8,75.2"
         style="fill:none;fill-rule:evenodd;stroke:#ffffff;stroke-width:1px;stroke-linecap:butt;stroke-linejoin:miter;stroke-opacity:1" />
      <path
         inkscape:connector-curvature="0"
         id="path4533"
         d="m -931.2,942.7622 96.8,60.8"
         style="fill:none;fill-rule:evenodd;stroke:#ffffff;stroke-width:1px;stroke-linecap:butt;stroke-linejoin:miter;stroke-opacity:1" />
      <path
         inkscape:connector-curvature="0"
         id="path4531"
         d="m -922.4,924.3622 120.8,72.8"
         style="fill:none;fill-rule:evenodd;stroke:#ffffff;stroke-width:1px;stroke-linecap:butt;stroke-linejoin:miter;stroke-opacity:1" />
      <path
         style="fill:#000000;fill-rule:evenodd;stroke:#000000;stroke-width:1px;stroke-linecap:butt;stroke-linejoin:miter;stroke-opacity:1"
         d="m -479.79444,215.94289 c 54.80897,-9.1328 59.37639,-38.81439 52.52525,-59.36319 -6.85111,-20.54881 -22.83707,-41.09761 -47.95786,-43.3808 -25.12077,-2.28322 -59.37637,11.41598 -59.37637,11.41598"
         id="path3363"
         inkscape:connector-curvature="0"
         sodipodi:nodetypes="cssc"
         inkscape:export-xdpi="86.718498"
         inkscape:export-ydpi="86.718498" />
      <path
         style="fill:none;fill-rule:evenodd;stroke:#000000;stroke-width:1px;stroke-linecap:butt;stroke-linejoin:miter;stroke-opacity:1"
         d="m -516.33376,590.38766 -45.67417,-22.83199"
         id="path3365"
         inkscape:connector-curvature="0"
         inkscape:export-xdpi="86.718498"
         inkscape:export-ydpi="86.718498" />
      <path
         style="fill:#ececec;fill-rule:evenodd;stroke:none;stroke-width:1px;stroke-linecap:butt;stroke-linejoin:miter;stroke-opacity:1"
         d="m -753.16115,696.81393 c 63.1272,6.49766 107.7325,63.61868 32.0335,261.14761 -8.2471,21.5202 -112.5127,48.05846 -152.182,49.97616 0.1345,0.033 0.2886,0.073 0.4222,0.1051 22.8326,5.6109 154.7335,-25.12362 164.0495,-49.43288 80.5323,-210.14118 24.9105,-261.37467 -44.3232,-261.79634 z"
         id="path3375"
         inkscape:export-xdpi="86.718498"
         inkscape:export-ydpi="86.718498"
         inkscape:connector-curvature="0" />
      <g
         id="g3369"
         transform="matrix(2.0013662,0,0,2.0009214,-1527.1084,-676.02502)"
         inkscape:export-xdpi="86.718498"
         inkscape:export-ydpi="86.718498">
        <path
           id="path3371"
           d="m 525.97852,830.56445 c 1.37899,-0.0744 3.04575,-0.0589 3.875,-0.29883 2.82133,-0.8162 6.0229,-1.69151 9.14843,-2.87695 1.56277,-0.59272 3.10591,-1.26395 4.57422,-2.04297 1.46831,-0.77901 2.86092,-1.66538 4.1211,-2.69336 1.26018,-1.02797 2.38779,-2.19751 3.32617,-3.53711 0.93837,-1.33959 1.6885,-2.85057 2.1914,-4.56445 0.5029,-1.71387 0.75914,-3.63043 0.71289,-5.78125 -0.0462,-2.15081 -0.39639,-4.53513 -1.10546,-7.18555 -0.35454,-1.3252 -0.79413,-2.59656 -1.3086,-3.8164 -0.51447,-1.21984 -1.10342,-2.38785 -1.75586,-3.50586 -1.30488,-2.23603 -2.8629,-4.27311 -4.58789,-6.12305 -1.72499,-1.84994 -3.61652,-3.51372 -5.58594,-5.00586 -1.96941,-1.49214 -4.01654,-2.81197 -6.05468,-3.97461 -2.03814,-1.16264 -4.06688,-2.16786 -5.99805,-3.02929 -1.93117,-0.86143 -3.76556,-1.57946 -5.41406,-2.16797 -3.29701,-1.17703 -5.85266,-1.83667 -6.96485,-2.0918 -0.27804,-0.0638 -0.47486,-0.42722 -0.60546,-1.05664 -0.13061,-0.62942 -0.19587,-1.52504 -0.20899,-2.64844 -0.0263,-2.24678 0.15403,-5.40852 0.41797,-9.20117 0.26394,-3.79265 0.61131,-8.21533 0.92578,-12.98047 0.31447,-4.76514 0.59537,-9.87284 0.7207,-15.03711 0.12534,-5.16426 0.0964,-10.38497 -0.20703,-15.375 -0.15173,-2.49501 -0.37191,-4.93339 -0.67578,-7.27734 -0.30386,-2.34395 -0.69178,-4.59363 -1.17773,-6.71485 -0.48596,-2.12121 -1.07153,-4.11264 -1.76953,-5.93945 -0.69801,-1.8268 -1.50921,-3.48849 -2.44922,-4.94922 -0.94002,-1.46072 -2.00873,-2.72116 -3.22071,-3.74414 -1.21198,-1.02297 -2.56617,-1.80871 -4.08007,-2.32226 -2.67445,-0.90724 -5.4774,-1.78488 -8.36719,-2.59571 -2.88979,-0.81082 -5.86716,-1.55528 -8.88867,-2.19922 -3.02152,-0.64393 -6.08859,-1.18718 -9.15821,-1.59374 -2.60831,-0.34547 -5.20967,-0.5312 -7.79687,-0.65821 -34.50469,0.76467 -61.34759,26.39129 -16.17578,131.33008 4.32978,10.05857 51.79529,20.51063 73.54297,21.6582 z"
           style="fill:#000000;fill-rule:evenodd;stroke:#000000;stroke-width:0.4997142px;stroke-linecap:butt;stroke-linejoin:miter;stroke-opacity:1"
           inkscape:connector-curvature="0" />
        <path
           inkscape:connector-curvature="0"
           id="path3373"
           d="m 521.86422,830.56444 c 4.08972,0.21581 7.57501,0.21795 9.36132,-0.29883 11.28532,-3.26481 28.64132,-7.47832 22.96875,-28.68164 -5.67255,-21.20331 -33.22117,-28.69433 -37.66992,-29.71484 -4.44875,-1.02049 11.89042,-79.0292 -12.33203,-87.24609 -11.92583,-4.04554 -26.36331,-7.34233 -39.69531,-7.04688 2.5872,0.12701 5.18856,0.31274 7.79687,0.65821 3.06962,0.40656 6.13669,0.94981 9.15821,1.59374 3.02151,0.64394 5.99888,1.3884 8.88867,2.19922 2.88979,0.81083 5.69274,1.68847 8.36719,2.59571 1.5139,0.51355 2.86809,1.29929 4.08007,2.32226 1.21198,1.02298 2.28069,2.28342 3.22071,3.74414 0.94001,1.46073 1.75121,3.12242 2.44922,4.94922 0.698,1.82681 1.28357,3.81824 1.76953,5.93945 0.48595,2.12122 0.87387,4.3709 1.17773,6.71485 0.30387,2.34395 0.52405,4.78233 0.67578,7.27734 0.30346,4.99003 0.33237,10.21074 0.20703,15.375 -0.12533,5.16427 -0.40623,10.27197 -0.7207,15.03711 -0.31447,4.76514 -0.66184,9.18782 -0.92578,12.98047 -0.26394,3.79265 -0.44422,6.95439 -0.41797,9.20117 0.0131,1.1234 0.0784,2.01902 0.20899,2.64844 0.1306,0.62942 0.32742,0.99286 0.60546,1.05664 1.11219,0.25513 3.66784,0.91477 6.96485,2.0918 1.6485,0.58851 3.48289,1.30654 5.41406,2.16797 1.93117,0.86143 3.95991,1.86665 5.99805,3.02929 2.03814,1.16264 4.08527,2.48247 6.05468,3.97461 1.96942,1.49214 3.86095,3.15592 5.58594,5.00586 1.72499,1.84994 3.28301,3.88702 4.58789,6.12305 0.65244,1.11801 1.24139,2.28602 1.75586,3.50586 0.51447,1.21984 0.95406,2.4912 1.3086,3.8164 0.70907,2.65042 1.05922,5.03474 1.10546,7.18555 0.0462,2.15082 -0.20999,4.06738 -0.71289,5.78125 -0.5029,1.71388 -1.25303,3.22486 -2.1914,4.56445 -0.93838,1.3396 -2.06599,2.50914 -3.32617,3.53711 -1.26018,1.02798 -2.65279,1.91435 -4.1211,2.69336 -1.46831,0.77902 -3.01145,1.45025 -4.57422,2.04297 -3.12553,1.18544 -6.3271,2.06075 -9.14843,2.87695 -0.82925,0.2399 -2.49601,0.22444 -3.875,0.29883 z"
           style="fill:#4d4d4d;fill-rule:evenodd;stroke:none;stroke-width:1px;stroke-linecap:butt;stroke-linejoin:miter;stroke-opacity:1" />
      </g>
      <path
         style="fill:#ffffff;fill-rule:evenodd;stroke:none;stroke-width:1px;stroke-linecap:butt;stroke-linejoin:miter;stroke-opacity:1"
         d="m -881.72835,606.3701 c 0,0 0,118.72639 13.4879,141.55839 97.1292,112.94012 359.39103,110.80627 386.65481,4.5664 8.09031,-17.57951 10.27235,-134.97486 0.43271,-196.04434 -60.6268,-376.27888 -296.15112,-216.77893 -334.36692,-219.06214 -71.518,48.54373 -66.2085,268.98169 -66.2085,268.98169 z"
         id="path3377"
         inkscape:connector-curvature="0"
         sodipodi:nodetypes="cccscc"
         inkscape:export-xdpi="86.718498"
         inkscape:export-ydpi="86.718498" />
      <path
         style="fill:#e6e6e6;fill-rule:evenodd;stroke:none;stroke-width:1px;stroke-linecap:butt;stroke-linejoin:miter;stroke-opacity:1"
         d="m -546.5681,367.76294 c -12.37047,51.15746 -195.93235,90.46376 -256.18855,-2.96279"
         id="path3379"
         inkscape:connector-curvature="0"
         sodipodi:nodetypes="cc"
         inkscape:export-xdpi="86.718498"
         inkscape:export-ydpi="86.718498" />
      <path
         sodipodi:nodetypes="ccc"
         inkscape:connector-curvature="0"
         id="path3381"
         d="m -482.83339,760.67342 c 13.70833,-44.1061 17.72791,-296.73913 -69.90094,-388.85488 0,0 76.34707,188.05353 69.90094,388.85488 z"
         style="fill:#e6e6e6;fill-rule:evenodd;stroke:none;stroke-width:1px;stroke-linecap:butt;stroke-linejoin:miter;stroke-opacity:1"
         inkscape:export-xdpi="86.718498"
         inkscape:export-ydpi="86.718498" />
      <path
         sodipodi:nodetypes="cssc"
         inkscape:connector-curvature="0"
         id="path3383"
         d="m -566.46843,355.63615 c 376.73503,485.56963 -425.62542,293.46403 -258.48422,121.52054 43.0913,-44.32939 200.9011,126.73749 258.00175,73.89852 28.21814,-26.11211 19.83978,-41.24768 0.48247,-195.41906 z"
         style="fill:#e6e6e6;fill-rule:evenodd;stroke:none;stroke-width:1px;stroke-linecap:butt;stroke-linejoin:miter;stroke-opacity:1"
         inkscape:export-xdpi="86.718498"
         inkscape:export-ydpi="86.718498" />
      <path
         sodipodi:nodetypes="cssc"
         inkscape:connector-curvature="0"
         id="path3389"
         d="m -783.91835,86.877444 c -39.8224,-38.742486 -73.2994,-36.25806 -85.8022,-18.568491 -12.5028,17.689544 -19.5952,42.737697 -6.5568,64.326157 13.0384,21.58844 42.7039,35.44126 42.7039,35.44126"
         style="fill:#000000;fill-rule:evenodd;stroke:none;stroke-width:1px;stroke-linecap:butt;stroke-linejoin:miter;stroke-opacity:1"
         inkscape:export-xdpi="86.718498"
         inkscape:export-ydpi="86.718498" />
      <path
         style="fill:#ffffff;fill-rule:evenodd;stroke:none;stroke-width:1px;stroke-linecap:butt;stroke-linejoin:miter;stroke-opacity:1"
         d="m -699.03035,410.01491 c 295.23921,14.54448 283.24905,-358.174502 18.2696,-369.878392 -88.1745,-3.894576 -149.4372,66.282432 -166.2295,143.938942 -20.2905,100.25017 31.4707,217.39526 147.9599,225.93945 z"
         id="path3391"
         inkscape:connector-curvature="0"
         sodipodi:nodetypes="cscc"
         inkscape:export-xdpi="86.718498"
         inkscape:export-ydpi="86.718498" />
      <path
         sodipodi:nodetypes="cscc"
         inkscape:connector-curvature="0"
         id="path3393"
         d="m -699.03035,410.01491 c 295.23921,14.54448 283.24905,-358.174502 18.2696,-369.878392 -88.1745,-3.894576 -149.4372,66.282432 -166.2295,143.938942 -20.2905,100.25017 31.4707,217.39526 147.9599,225.93945 z"
         style="fill:#ffffff;fill-rule:evenodd;stroke:none;stroke-width:1px;stroke-linecap:butt;stroke-linejoin:miter;stroke-opacity:1"
         inkscape:export-xdpi="86.718498"
         inkscape:export-ydpi="86.718498" />
      <path
         style="fill:#e6e6e6;fill-rule:evenodd;stroke:none;stroke-width:1px;stroke-linecap:butt;stroke-linejoin:miter;stroke-opacity:1"
         d="m -621.09685,403.3995 c 126.24267,-24.44385 202.63064,-333.406611 -43.2227,-357.987156 257.18111,21.936921 223.4566,336.842186 43.2227,357.987156 z"
         id="path3395"
         inkscape:connector-curvature="0"
         sodipodi:nodetypes="ccc"
         inkscape:export-xdpi="86.718498"
         inkscape:export-ydpi="86.718498" />
      <path
         style="fill:#e6e6e6;fill-rule:evenodd;stroke:none;stroke-width:1px;stroke-linecap:butt;stroke-linejoin:miter;stroke-opacity:1"
         d="m -639.65395,357.50131 c -23.7503,42.04146 -79.0106,35.08113 -86.7809,-15.98241 17.282,47.36929 57.8539,52.69676 86.7809,15.98241 z"
         id="path3397"
         inkscape:connector-curvature="0"
         sodipodi:nodetypes="ccc"
         inkscape:export-xdpi="86.718498"
         inkscape:export-ydpi="86.718498" />
      <path
         style="fill:#e6e6e6;fill-rule:evenodd;stroke:none;stroke-width:1px;stroke-linecap:butt;stroke-linejoin:miter;stroke-opacity:1"
         d="m -596.64239,298.17384 c 23.95817,-120.36039 -106.69606,-92.33966 -106.69606,-92.33966 38.8614,13.54468 106.45612,55.26144 106.69606,92.33966 z"
         id="path3402"
         inkscape:connector-curvature="0"
         sodipodi:nodetypes="ccc"
         inkscape:export-xdpi="86.718498"
         inkscape:export-ydpi="86.718498" />
      <path
         sodipodi:nodetypes="ccssc"
         inkscape:connector-curvature="0"
         id="path3404"
         d="m -519.4898,176.71045 c -114.39065,-35.66722 -181.28645,-38.25383 -267.25025,-50.69847 -33.2988,140.75342 98.5419,149.43214 110.2539,54.3573 4.9674,-40.32459 40.2894,-12.3692 42.2191,-2.29749 29.66978,154.85924 146.40006,64.93329 114.77725,-1.36134 z"
         style="fill:#e6e6e6;fill-rule:evenodd;stroke:none;stroke-width:1px;stroke-linecap:butt;stroke-linejoin:miter;stroke-opacity:1"
         inkscape:export-xdpi="86.718498"
         inkscape:export-ydpi="86.718498" />
      <path
         style="fill:#ffffff;fill-rule:evenodd;stroke:none;stroke-width:1px;stroke-linecap:butt;stroke-linejoin:miter;stroke-opacity:1"
         d="m -596.26355,300.42131 c -4.01304,-120.46958 -137.5419,-120.85033 -164.4269,-20.54879"
         id="path3406"
         inkscape:connector-curvature="0"
         sodipodi:nodetypes="cc"
         inkscape:export-xdpi="86.718498"
         inkscape:export-ydpi="86.718498" />
      <path
         id="path3408"
         d="m -795.85352,122.35352 c -33.5179,140.75342 99.18952,149.43225 110.97852,54.35742 5.0002,-40.32459 40.55565,-12.37053 42.49805,-2.29883 29.86509,154.85925 147.36415,64.93331 115.5332,-1.36133 -115.14352,-35.66721 -182.48017,-38.25262 -269.00977,-50.69726 z m 112.16993,37.35742 2.72656,0 c -7.48131,9.65967 -5.1838,23.79334 -9.96094,34.76172 -6.96129,22.62053 -27.55407,42.1573 -51.52344,43 l 0,-0.55469 c 22.9226,-2.02306 42.36881,-20.99318 49.09375,-42.8457 4.71176,-10.81827 2.54584,-24.71442 9.66407,-34.36133 z m 150.90429,13.63086 c 1.49971,0.45689 3.004,0.89877 4.50196,1.36132 6.37492,13.59406 6.25285,29.75091 0.78711,43.66602 -8.46475,22.59696 -31.65963,42.88018 -57.125,39.06836 l 0,-0.99023 c 23.65126,0.95611 44.6394,-18.24218 52.59961,-39.49219 5.45871,-13.89726 5.58641,-30.03012 -0.76368,-43.61328 z"
         style="fill:#000000;fill-rule:evenodd;stroke:#000000;stroke-width:1px;stroke-linecap:butt;stroke-linejoin:miter;stroke-opacity:1"
         inkscape:connector-curvature="0" />
      <path
         style="fill:#000000;fill-rule:evenodd;stroke:#000000;stroke-width:1px;stroke-linecap:butt;stroke-linejoin:miter;stroke-opacity:1"
         d="m -651.05825,243.32699 c -3.3287,-11.02573 -28.5202,-14.55449 -34.2556,-4.56639 -4.3213,7.52552 7.3461,8.74517 15.986,9.57226 8.0552,0.77114 20.6079,2.73925 18.2696,-5.00587 z"
         id="path3410"
         inkscape:connector-curvature="0"
         sodipodi:nodetypes="ssss"
         inkscape:export-xdpi="86.718498"
         inkscape:export-ydpi="86.718498" />
      <g
         transform="matrix(0.68668065,0.37633237,-0.34395096,0.7513285,-5.3948777,634.11299)"
         id="g4385">
        <path
           inkscape:connector-curvature="0"
           style="opacity:1;fill:#4d4d4d;fill-opacity:1;fill-rule:nonzero;stroke:none;stroke-width:15;stroke-linecap:round;stroke-linejoin:miter;stroke-miterlimit:4;stroke-dasharray:none;stroke-dashoffset:0;stroke-opacity:1"
           d="m -1013.3775,569.32404 c -6.5624,1.30565 -10.7944,7.63986 -9.4887,14.20225 l 30.0941,151.25808 c 0.43801,2.20148 1.45142,4.13113 2.84004,5.687 l 20.40401,-4.05956 c 0.0316,-0.0905 0.0571,-0.1836 0.0866,-0.27495 -0.0101,-0.0173 -0.0172,-0.036 -0.0267,-0.0536 -0.0801,-0.15352 -0.15559,-0.31037 -0.2257,-0.47054 -0.0395,-0.0907 -0.0753,-0.18333 -0.11121,-0.27614 -0.0489,-0.12472 -0.0949,-0.25116 -0.13714,-0.37958 -0.0239,-0.0728 -0.0483,-0.14497 -0.0697,-0.219 -0.0637,-0.21597 -0.12199,-0.43471 -0.16684,-0.66017 l -32.07456,-161.21216 c -2.7547,-2.91037 -6.8879,-4.3845 -11.1247,-3.54156 z"
           id="rect3613" />
        <path
           inkscape:connector-curvature="0"
           style="opacity:1;fill:#cccccc;fill-opacity:1;fill-rule:nonzero;stroke:none;stroke-width:15;stroke-linecap:round;stroke-linejoin:miter;stroke-miterlimit:4;stroke-dasharray:none;stroke-dashoffset:0;stroke-opacity:1"
           d="m -1032.7056,219.8409 c -4.0384,0.80348 -6.453,5.65064 -5.4152,10.86691 l 44.02319,221.26764 c 0.0391,0.19637 0.0895,0.38564 0.13694,0.57716 -0.34333,0.75358 -0.57259,1.5741 -0.64839,2.4485 l -8.89704,102.59037 0.01,10e-6 -0.167,8.16911 33.48817,168.31719 c 0.16544,0.83153 0.46841,1.59748 0.87035,2.29025 l -23.59276,4.69399 c 0.59669,-1.35056 0.80232,-2.89116 0.49109,-4.45543 l -33.03105,-166.01933 -0.091,0.018 -1.8645,-9.37143 -46.9655,-90.36533 c -0.051,-0.097 -0.109,-0.18637 -0.163,-0.28022 0.07,-0.90933 0.019,-1.8525 -0.1713,-2.80741 l -44.0001,-221.15187 c -0.9847,-4.94902 -5.2681,-8.23901 -9.6048,-7.37618 -4.3367,0.86283 -7.0359,5.54206 -6.0512,10.49108 l 44.0001,221.15188 c 0.2375,1.19374 0.6717,2.28694 1.2476,3.2526 -0.094,1.32371 0.157,2.68987 0.8164,3.95851 l 47.4592,91.31499 33.8399,170.08527 c 0.3113,1.56427 1.0899,2.90905 2.1579,3.9284 l -2.5999,0.51726 3.7346,18.77056 c 8.73335,3.91173 15.72862,8.33675 19.22684,13.79393 0.60956,0.0927 1.22262,0.17745 1.8354,0.26278 -0.0334,0.59903 -10e-4,1.21132 0.12174,1.82823 l 24.45873,122.93362 c 0.7812,3.92642 4.57109,6.4585 8.49751,5.67731 l 4.8965,-0.97421 c 3.92643,-0.78119 6.45851,-4.57108 5.67731,-8.49751 l -24.46163,-122.9336 c -0.0623,-0.31329 -0.14979,-0.61483 -0.24899,-0.90939 0.86369,-0.44427 1.74242,-0.92434 2.65521,-1.48198 0.53948,-6.10665 6.27066,-13.24564 11.49936,-20.28525 l -3.40594,-19.02564 -2.58606,0.51452 c 0.10629,-0.79387 0.0929,-1.61745 -0.0725,-2.44898 L -988.86529,563.9775 c 0.43137,-0.83761 0.71197,-1.77176 0.79868,-2.77144 l 9.09409,-104.84833 c 0.098,-1.13009 -0.0667,-2.21796 -0.43261,-3.21329 0.18755,-1.28265 0.16661,-2.66048 -0.11373,-4.06952 L -1023.542,227.80727 c -1.0378,-5.21627 -5.1251,-8.76981 -9.1635,-7.96634 z m -0.035,1.35703 c 3.4603,-0.87403 6.3751,2.19624 7.4384,5.18681 13.511,66.29363 26.45285,132.73077 39.74593,199.07937 1.69961,9.79724 4.49943,19.59335 5.24126,29.42724 -2.2414,29.94055 -5.1446,59.87154 -7.63844,89.80839 -1.04118,6.29547 -0.17878,13.05665 -2.28704,19.09995 l 27.3205,137.31733 c 1.88211,10.83271 4.82817,21.58235 6.07863,32.4658 -0.0108,0.10735 -0.0299,0.20982 -0.0461,0.31399 l -1.28611,0.25588 c 0.0162,-0.1036 0.033,-0.20675 0.0436,-0.31349 -1.25046,-10.88345 -4.19652,-21.63308 -6.07863,-32.4658 l -27.3205,-137.31733 c 2.10826,-6.0433 1.2458,-12.80446 2.28704,-19.09995 2.49391,-29.93686 5.39704,-59.86784 7.63844,-89.80839 -0.74183,-9.83389 -3.54165,-19.62999 -5.24126,-29.42724 -13.29272,-66.34866 -26.23502,-132.78574 -39.74592,-199.07937 -0.9597,-2.69898 -3.4293,-5.45215 -6.4451,-5.32295 0.098,-0.0405 0.193,-0.0832 0.2953,-0.12024 z m 77.32514,513.74564 1.41697,-0.28192 3.06991,17.14585 c -4.36224,6.17503 -9.89319,12.14894 -11.33455,19.81812 -0.94626,0.60897 -1.92967,1.14328 -2.93646,1.62036 7.93283,38.58771 16.00909,80.32293 23.76825,118.92385 1.04517,3.96681 2.81708,10.07002 -2.05507,12.30988 -1.51218,0.5215 -3.36277,1.09264 -5.20791,1.34883 1.07876,-0.27089 2.11225,-0.6003 3.02073,-0.91367 4.87241,-2.23992 3.10031,-8.34308 2.05514,-12.30989 -7.78015,-38.70439 -15.87863,-80.56276 -23.83182,-119.23696 l -0.0437,-0.0881 c 0.008,-0.004 0.0161,-0.007 0.0241,-0.0102 -0.0126,-0.0636 -0.0256,-0.12894 -0.0383,-0.19254 l 1.6158,-0.32147 c 0.77819,-0.21311 1.56129,-0.42879 2.21343,-0.84856 1.44162,-7.66923 6.97232,-13.64309 11.33455,-19.81812 l -3.06985,-17.14586 z"
           id="rect3615" />
        <path
           inkscape:connector-curvature="0"
           style="opacity:1;fill:#4d4d4d;fill-opacity:1;fill-rule:nonzero;stroke:none;stroke-width:15;stroke-linecap:round;stroke-linejoin:miter;stroke-miterlimit:4;stroke-dasharray:none;stroke-dashoffset:0;stroke-opacity:1"
           d="m -1026.5141,203.28026 c -0.4345,0.0614 -0.8361,0.1785 -1.1894,0.36027 -42.8332,22.03587 -76.8298,26.07119 -111.4809,22.44602 -3.1615,-0.33076 -8.4334,4.33321 -8.3451,7.51087 l 0.3457,12.43007 c 0.088,3.17765 4.2338,3.02324 7.3621,3.58795 41.992,7.58029 82.3975,0.98853 120.7407,-24.02244 2.6626,-1.73674 6.2981,-4.43835 5.1737,-7.41173 l -3.9282,-10.38762 c -0.9838,-2.6017 -5.637,-4.94281 -8.6786,-4.51339 z m 0.3065,3.01802 c 0.01,8e-4 0.01,0.006 0.1171,-0.0171 0.5542,-0.0782 2.0716,0.18122 3.3022,0.81393 1.2306,0.63271 2.079,1.66665 2.1182,1.77043 l 3.9282,10.38762 c 0.073,0.19195 0.1214,0.25994 -0.6169,1.10752 -0.049,0.0565 -0.108,0.11566 -0.1628,0.17367 l -3.7289,-9.86112 c -0.039,-0.10377 -0.8876,-1.13771 -2.1183,-1.77043 -1.2306,-0.63271 -2.748,-0.89218 -3.3022,-0.81393 -0.1616,0.0228 -0.2336,0.0568 -0.2272,0.0535 a 3.0306227,3.0306227 0 0 1 2e-4,7.9e-4 c -43.2794,22.26542 -78.0957,26.43555 -113.1823,22.76483 0.059,0.006 -1.7485,0.51596 -3.0564,1.68532 -0.583,0.52128 -1.0246,1.13939 -1.3433,1.65927 l -0.021,-0.73972 c 0,0.12627 0.6364,-1.55786 1.9443,-2.72723 1.3079,-1.16938 3.1149,-1.67921 3.0564,-1.68534 35.0865,3.67072 69.9029,-0.49941 113.1823,-22.76482 0.1026,-0.0364 0.1057,-0.0387 0.11,-0.0375 z"
           id="rect4434" />
        <path
           style="opacity:1;fill:#666666;fill-opacity:1;fill-rule:nonzero;stroke:none;stroke-width:15;stroke-linecap:round;stroke-linejoin:miter;stroke-miterlimit:4;stroke-dasharray:none;stroke-dashoffset:0;stroke-opacity:1"
           d="m -954.60231,903.40116 c -3.92642,0.7812 -6.4585,4.57109 -5.6773,8.49751 l 2.51249,12.62822 c 0.13664,0.68677 0.36961,1.32846 0.67497,1.91963 -2.75234,3.07602 0.42972,20.37748 2.07394,24.32095 3.95354,9.80432 37.22663,-0.3855 32.37899,-9.79913 -2.08801,-6.39082 -0.65025,-15.723 -7.60802,-19.44683 -0.2013,-0.0984 -0.40395,-0.1891 -0.60641,-0.27313 0.0585,-0.67 0.0277,-1.35975 -0.11043,-2.05419 l -2.51249,-12.62822 c -0.7812,-3.92643 -4.57109,-6.4585 -8.49752,-5.67731 z"
           id="rect4197"
           inkscape:connector-curvature="0"
           sodipodi:nodetypes="ssscccccssss" />
        <path
           inkscape:connector-curvature="0"
           style="opacity:1;fill:#4d4d4d;fill-opacity:1;fill-rule:nonzero;stroke:none;stroke-width:15;stroke-linecap:round;stroke-linejoin:miter;stroke-miterlimit:4;stroke-dasharray:none;stroke-dashoffset:0;stroke-opacity:1"
           d="m -1081.0993,435.59431 6.4038,32.18656 c 0.19,0.95491 0.2409,1.89808 0.1713,2.80741 0.054,0.0938 0.1126,0.18318 0.163,0.28022 l 0.6002,1.15611 79.04001,-15.7257 0.11206,-1.29783 c 0.0758,-0.8744 0.30506,-1.69492 0.64839,-2.44849 -0.0475,-0.19152 -0.0979,-0.38079 -0.13694,-0.57716 l -6.44782,-32.40804 -80.5539,16.0269 z"
           id="rect4208" />
      </g>
      <path
         inkscape:export-ydpi="86.718498"
         inkscape:export-xdpi="86.718498"
         sodipodi:nodetypes="ccc"
         inkscape:connector-curvature="0"
         id="path4305"
         d="m -843.6741,667.62225 c 74.08587,-91.01069 -38.64898,-99.08536 33.21443,-307.54177 -164.44439,-41.99329 -134.85894,417.92342 -33.21443,307.54177 z"
         style="fill:#000000;fill-rule:evenodd;stroke:none;stroke-width:1px;stroke-linecap:butt;stroke-linejoin:miter;stroke-opacity:1" />
      <path
         sodipodi:nodetypes="cc"
         style="fill:#ffffff;fill-rule:evenodd;stroke:none;stroke-width:1px;stroke-linecap:butt;stroke-linejoin:miter;stroke-opacity:1"
         d="m -789.72705,652.61085 c -257.56135,276.55691 -128.7806,138.27845 0,0 z"
         id="path3412"
         inkscape:connector-curvature="0"
         inkscape:export-xdpi="86.718498"
         inkscape:export-ydpi="86.718498" />
      <path
         sodipodi:nodetypes="cc"
         inkscape:connector-curvature="0"
         id="path3414"
         d="m -540.64384,509.30402 c -655.20336,623.33358 -327.60161,311.6668 0,0 z"
         style="fill:#4d4d4d;fill-rule:evenodd;stroke:none;stroke-width:1px;stroke-linecap:butt;stroke-linejoin:miter;stroke-opacity:1"
         inkscape:export-xdpi="86.718498"
         inkscape:export-ydpi="86.718498" />
      <path
         id="path3387"
         d="m -538.23633,366.29297 c -4.37424,3.88389 -8.96917,7.52671 -13.77929,10.9043 15.91709,121.15421 20.84835,136.19222 -5.02735,160.13671 -57.10064,52.83897 -214.91065,-118.22781 -258.00195,-73.89843 -164.27392,168.99371 607.94024,357.44598 276.80859,-97.14258 z"
         style="fill:#000000;fill-rule:evenodd;stroke:none;stroke-width:1px;stroke-linecap:butt;stroke-linejoin:miter;stroke-opacity:1"
         inkscape:connector-curvature="0" />
      <path
         sodipodi:nodetypes="cc"
         inkscape:connector-curvature="0"
         id="path4398"
         d="m -697.6,316.36221 c 10.26304,-1.67847 20.04643,-4.91576 33.2,2.8"
         style="fill:#ffffff;fill-rule:evenodd;stroke:#cccccc;stroke-width:1px;stroke-linecap:butt;stroke-linejoin:miter;stroke-opacity:1" />
      <path
         inkscape:connector-curvature="0"
         id="path4515"
         d="m -871.2,777.96221 164,-62.4"
         style="fill:none;fill-rule:evenodd;stroke:#ffffff;stroke-width:1px;stroke-linecap:butt;stroke-linejoin:miter;stroke-opacity:1" />
      <path
         inkscape:connector-curvature="0"
         id="path4517"
         d="m -869.6,817.96221 181.6,-72"
         style="fill:none;fill-rule:evenodd;stroke:#ffffff;stroke-width:1px;stroke-linecap:butt;stroke-linejoin:miter;stroke-opacity:1" />
      <path
         inkscape:connector-curvature="0"
         id="path4519"
         d="m -864.8,850.76221 182.4,-63.2"
         style="fill:none;fill-rule:evenodd;stroke:#ffffff;stroke-width:1px;stroke-linecap:butt;stroke-linejoin:miter;stroke-opacity:1" />
      <path
         inkscape:connector-curvature="0"
         id="path4521"
         d="m -860,880.3622 177.6,-61.59999"
         style="fill:none;fill-rule:evenodd;stroke:#ffffff;stroke-width:1px;stroke-linecap:butt;stroke-linejoin:miter;stroke-opacity:1" />
      <path
         sodipodi:nodetypes="cc"
         inkscape:connector-curvature="0"
         id="path4523"
         d="m -782.95022,888.23874 93.15611,-33.14516"
         style="fill:none;fill-rule:evenodd;stroke:#ffffff;stroke-width:1px;stroke-linecap:butt;stroke-linejoin:miter;stroke-opacity:1" />
      <path
         inkscape:connector-curvature="0"
         id="path4525"
         d="m -824.8,867.56221 114.4,59.19999"
         style="fill:none;fill-rule:evenodd;stroke:#ffffff;stroke-width:1px;stroke-linecap:butt;stroke-linejoin:miter;stroke-opacity:1" />
      <path
         inkscape:connector-curvature="0"
         id="path4527"
         d="m -862.4,889.1622 140,72"
         style="fill:none;fill-rule:evenodd;stroke:#ffffff;stroke-width:1px;stroke-linecap:butt;stroke-linejoin:miter;stroke-opacity:1" />
      <path
         sodipodi:nodetypes="cc"
         inkscape:connector-curvature="0"
         id="path4535"
         d="m -941.6,969.1622 64.19411,42.8284"
         style="fill:none;fill-rule:evenodd;stroke:#ffffff;stroke-width:1px;stroke-linecap:butt;stroke-linejoin:miter;stroke-opacity:1" />
      <path
         style="fill:none;fill-rule:evenodd;stroke:#ffffff;stroke-width:1px;stroke-linecap:butt;stroke-linejoin:miter;stroke-opacity:1"
         d="m -749.0091,906.90635 51.29539,-18.43734"
         id="path4537"
         inkscape:connector-curvature="0"
         sodipodi:nodetypes="cc" />
    </g>
  </g>
</svg>
